<svg version="1.2" xmlns="http://www.w3.org/2000/svg" viewBox="0 0 1542 1541" width="1542" height="1541"><style>.a{fill:#e30613}</style><path fill-rule="evenodd" class="a" d="m909.1 224.7c10.8-77.3 26-198.3 26-198.3 0 0-21.6-11.4-43.7-15.8-22.2-4.5-55.8-1.3-55.8-1.3 0 0 1.3 99.5 3.2 175.5 2.5 80.5 19 276.9 19 276.9 0 0 34.2-118.5 51.3-237zm-140.6 235.7c0 0 27.8-167.2 38.6-271.1 10.1-104 15.8-180 15.8-180 0 0-12-8.9-48.1-8.9-36.7 0-51.3 7.6-51.3 7.6 0 0 7.6 128 11.4 183.8 4.4 55.1 33.6 268.6 33.6 268.6zm-79.2 1.3c0 0 16.5-196.4 18.4-276.9 2.5-76 3.1-175.5 3.1-175.5 0 0-33.6-3.2-55.1 1.3-22.2 4.4-44.3 15.8-44.3 15.8 0 0 15.2 121 26.6 198.3 17.1 118.5 51.3 237 51.3 237zm-212.2-181.8c-46.9-62.1-121-158.4-121-158.4 0 0-24.1 6.9-42.5 19.6-19 12-40.5 38-40.5 38 0 0 70.9 69.7 126.1 122.3 58.2 55.8 208.4 182.5 208.4 182.5 0 0-58.9-107.7-130.5-204zm75.4 261.6c0 0-103.9-133.7-170.5-214.1-65.8-81.1-118.4-138.8-118.4-138.8 0 0-13.9 1.9-39.9 27.9-26 26-30.4 41.8-30.4 41.8 0 0 96.9 83 139.3 119.1 42.5 36.8 219.9 164.1 219.9 164.1zm-64 62.1c0 0-126.7-150.8-181.8-209.1-52.6-55.7-121.7-126.7-121.7-126.7 0 0-25.9 21.6-38.6 40.6-12 18.3-22.2 41.2-22.2 41.2 0 0 98.8 76 160.9 122.2 95.7 72.3 203.4 131.8 203.4 131.8zm441.5-110.2c0 0 150.1-127.4 208.4-182.5 55.1-52.6 126.1-122.3 126.1-122.3 0 0-21.6-26-39.9-38-19-12.7-42.5-19.6-42.5-19.6 0 0-74.7 95.6-121 158.4-72.2 95.6-131.1 204-131.1 204zm274.9-106.5c42.5-36.1 140-119.1 140-119.1 0 0-5-15.8-31-41.8-25.4-26-39.9-27.9-39.9-27.9 0 0-52.6 57.7-118.5 138.1-65.9 81.1-170.4 214.8-170.4 214.8 0 0 178-127.9 219.8-164.1zm48.2 94.4c61.4-46.2 160.2-122.2 160.2-122.2 0 0-9.5-22.9-22.1-41.2-12.1-19-38-40.6-38-40.6 0 0-69.7 71-122.3 126.7-55.1 58.3-181.8 209.1-181.8 209.1 0 0 107.7-59.5 204-131.8zm-1030.1 150.2c-76.6-11.4-197-26.6-197-26.6 0 0-11.4 22.2-15.8 44.3-4.4 21.6-1.9 55.2-1.9 55.2 0 0 99.5-0.7 175.5-2.6 80.4-2.5 276.2-19 276.2-19 0 0-117.9-34.8-237-51.3zm235.7 140.7c0 0-166.6-27.9-270.5-38-103.9-10.8-179.9-16.5-179.9-16.5 0 0-8.2 12-8.2 48.8 0 36.1 7.6 50.7 7.6 50.7 0 0 127.3-7 182.4-11.5 55.8-4.4 268.6-33.5 268.6-33.5zm1.3 79.8c0 0-195.8-16.5-276.2-19-76-1.9-175.5-3.2-175.5-3.2 0 0-2.5 33.6 1.9 55.8 4.4 22.2 15.8 44.3 15.8 44.3 0 0 120.4-15.2 197-26.6 119.1-17.1 237-51.3 237-51.3zm857.7 51.3c77.3 11.4 197.6 26.6 197.6 26.6 0 0 11.4-22.1 15.9-44.3 4.4-21.6 1.2-55.8 1.2-55.8 0 0-98.8 1.3-174.8 3.2-80.5 2.5-276.2 19-276.2 19 0 0 117.8 34.2 236.3 51.3zm-235-140.6c0 0 166.6 27.8 270.5 38 103.8 10.1 179.2 16.5 179.2 16.5 0 0 8.9-12.1 8.9-48.8 0-36.1-7.6-50.7-7.6-50.7 0 0-127.3 6.9-183.1 11.4-55.1 4.4-267.9 33.6-267.9 33.6zm-1.3-79.9c0 0 195.7 17.1 276.2 19 76 1.9 174.8 3.2 174.8 3.2 0 0 3.2-33.6-1.2-55.8-4.5-22.1-15.9-44.3-15.9-44.3 0 0-120.3 15.8-197.6 26.6-118.5 17.1-236.3 51.3-236.3 51.3zm-443.4 633.6c-11.4 76.7-26.6 197.7-26.6 197.7 0 0 22.1 11.4 44.3 15.9 21.5 4.4 55.1 1.9 55.1 1.9 0 0-0.6-100.1-3.1-176.2-1.9-80.4-18.4-276.9-18.4-276.9 0 0-34.9 118.5-51.3 237.6zm140-236.3c0 0-27.9 167.3-38 271.2-10.2 103.9-15.9 180.6-15.9 180.6 0 0 11.4 8.2 48.2 8.2 36.7 0 51.3-7.6 51.3-7.6 0 0-7.6-128-12.1-183.1-4.4-55.8-33.5-269.3-33.5-269.3zm79.8-1.3c0 0-16.5 196.5-19 276.9-1.9 76.1-3.2 176.2-3.2 176.2 0 0 33.6 2.5 55.8-1.9 22.1-4.5 43.7-15.9 43.7-15.9 0 0-15.2-121-26-197.7-17.1-119.1-51.3-237.6-51.3-237.6zm197.6 167.3c46.3 62.1 121 158.4 121 158.4 0 0 23.5-7.6 42.5-19.6 18.3-12.7 39.9-38.7 39.9-38.7 0 0-71-69.7-126.1-122.3-58.3-55.1-208.4-182.4-208.4-182.4 0 0 58.9 108.3 131.1 204.6zm-76-262.3c0 0 104.5 133.7 170.4 214.8 65.9 80.5 118.5 138.7 118.5 138.7 0 0 14.5-2.5 39.9-28.5 26-25.9 30.4-41.8 30.4-41.8 0 0-96.9-82.4-139.4-119.1-42.4-36.1-219.8-164.1-219.8-164.1zm64-61.5c0 0 126.7 150.2 181.8 209.1 52.6 55.1 122.3 126.1 122.3 126.1 0 0 25.3-21.5 38-39.9 12-19 22.1-41.8 22.1-41.8 0 0-98.8-75.4-160.9-122.3-95.6-72.2-203.3-131.2-203.3-131.2zm-428.2 128.7c0 0-150.8 126.7-209.1 181.8-55.7 52-126.7 121.7-126.7 121.7 0 0 21.6 25.9 40.6 38.6 18.3 12.7 41.8 19.6 41.8 19.6 0 0 74.7-96.3 121.6-157.7 72.2-96.3 131.8-204 131.8-204zm-275.6 105.1c-42.4 36.1-140 119.2-140 119.2 0 0 5.1 15.8 30.4 41.8 26 25.9 40.6 27.8 40.6 27.8 0 0 52.5-57 118.4-138.1 66.5-80.4 171.1-213.5 171.1-213.5 0 0-178.1 126.7-220.5 162.8zm-47.5-94.4c-62.1 46.3-160.9 121.7-160.9 121.7 0 0 10.1 22.8 22.2 41.8 12 18.4 38 40.5 38 40.5 0 0 69.7-70.9 122.2-126 55.8-58.3 182.5-208.5 182.5-208.5 0 0-107.7 58.9-204 130.5z"/></svg>